<?xml version="1.0" encoding="utf-8"?>
<!-- Generator: Adobe Illustrator 17.1.0, SVG Export Plug-In . SVG Version: 6.00 Build 0)  -->
<!DOCTYPE svg PUBLIC "-//W3C//DTD SVG 1.1//EN" "http://www.w3.org/Graphics/SVG/1.1/DTD/svg11.dtd">
<svg version="1.1" xmlns="http://www.w3.org/2000/svg" xmlns:xlink="http://www.w3.org/1999/xlink" x="0px" y="0px"
	 viewBox="0 0 640 640" style="enable-background:new 0 0 640 640;" xml:space="preserve">
<g id="bitcoin">
	<g id="symbol_2_">
		<g>
			<path style="fill:#FFFFFF;" d="M109.9,95.1c0.6-3.9-2.6-6.1-6.9-7.5l1.4-5.3l-3.4-0.8l-1.4,5.2c-0.9-0.2-1.8-0.4-2.8-0.6l1.4-5.2
				L94.8,80l-1.4,5.3c-0.7-0.2-1.5-0.3-2.2-0.5l0,0l-4.7-1.1l-0.9,3.5c0,0,2.6,0.6,2.5,0.6c1.4,0.3,1.6,1.2,1.6,1.9L88,95.8
				c0.1,0,0.2,0.1,0.4,0.1c-0.1,0-0.2-0.1-0.4-0.1l-2.2,8.5c-0.2,0.4-0.6,1-1.6,0.8c0,0-2.5-0.6-2.5-0.6l-1.7,3.7l4.5,1.1
				c0.8,0.2,1.6,0.4,2.5,0.6l-1.4,5.4l3.4,0.8l1.4-5.3c0.9,0.2,1.9,0.5,2.7,0.7l-1.4,5.3l3.4,0.8l1.4-5.4c5.9,1,10.3,0.6,12.1-4.4
				c1.5-4-0.1-6.4-3.2-7.9C107.8,99.4,109.5,98,109.9,95.1z M102.1,105.5c-1.1,4-8.3,1.9-10.6,1.3l1.9-7.2
				C95.7,100.2,103.2,101.3,102.1,105.5z M103.1,95c-1,3.7-7,1.8-8.9,1.3l1.7-6.5C97.9,90.3,104.1,91.2,103.1,95z"/>
		</g>
	</g>
</g>
<g id="key">
	<g>
		<g id="Key_Shadow" style="opacity:0.102;">
			<g>
				<path style="fill-rule:evenodd;clip-rule:evenodd;fill:#010101;" d="M59.7,134.3L38,112.6c1.3-2.6,2-5.5,2-8.6c0-11-9-20-20-20
					C9,84,0,93,0,104c0,11,9,20,20,20c3.6,0,7-1,9.9-2.7l12.4,12.4l0,0c0.2,0.2,0.4,0.3,0.7,0.3h3v3c0,0.6,0.4,1,1,1h3v5
					c0,0.6,0.4,1,1,1h8c0.6,0,1-0.4,1-1v-8C60,134.7,59.9,134.5,59.7,134.3z M16,107c-3.3,0-6-2.7-6-6c0-3.3,2.7-6,6-6
					c3.3,0,6,2.7,6,6C22,104.3,19.3,107,16,107z"/>
			</g>
		</g>
		<g id="Key">
			<g>
				<path style="fill-rule:evenodd;clip-rule:evenodd;fill:#F1CF4D;" d="M59.7,130.3L38,108.6c1.3-2.6,2-5.5,2-8.6c0-11-9-20-20-20
					C9,80,0,89,0,100s9,20,20,20c3.6,0,7-1,9.9-2.7l12.4,12.4l0,0c0.2,0.2,0.4,0.3,0.7,0.3h3v3c0,0.6,0.4,1,1,1h3v5c0,0.6,0.4,1,1,1
					h8c0.6,0,1-0.4,1-1v-8C60,130.7,59.9,130.5,59.7,130.3z M16,102c-3.3,0-6-2.7-6-6c0-3.3,2.7-6,6-6c3.3,0,6,2.7,6,6
					C22,99.3,19.3,102,16,102z"/>
			</g>
		</g>
		<g id="Inner_Shadow_1_" style="opacity:0.102;">
			<g>
				<path style="fill-rule:evenodd;clip-rule:evenodd;fill:#010101;" d="M16,86c-5.5,0-10,4.5-10,10c0,5.5,4.5,10,10,10
					c5.5,0,10-4.5,10-10C26,90.5,21.5,86,16,86z M16,102c-3.3,0-6-2.7-6-6c0-3.3,2.7-6,6-6c3.3,0,6,2.7,6,6C22,99.3,19.3,102,16,102
					z M34.8,113.4c-1.5,1.7-3.4,3.1-5.4,4.2c0.2-0.1,0.4-0.2,0.6-0.3l12.4,12.4c0.2,0.2,0.4,0.3,0.7,0.3h3v3c0,0.6,0.4,1,1,1h3v5
					c0,0.6,0.4,1,1,1h8c0.6,0,1-0.4,1-1v-0.4L34.8,113.4z M26.5,118.9c0.3-0.1,0.5-0.2,0.7-0.3C27,118.7,26.7,118.8,26.5,118.9
					L26.5,118.9z"/>
			</g>
		</g>
		<g id="Ring">
			<g>
				<path style="fill-rule:evenodd;clip-rule:evenodd;fill:#999999;" d="M16.4,93.6l-13-13C3.1,80.2,2.6,80,2,80c-1.1,0-2,0.9-2,2
					c0,0.6,0.2,1.1,0.6,1.4l13,13l0,0c0.4,0.4,0.9,0.6,1.4,0.6c1.1,0,2-0.9,2-2C17,94.4,16.8,93.9,16.4,93.6z"/>
			</g>
		</g>
	</g>
</g>
<g id="globe">
	<g>
		<g>
			<g id="Money_Shadow_3_" style="opacity:0.102;">
				<g>
					<circle style="fill-rule:evenodd;clip-rule:evenodd;fill:#010101;" cx="34" cy="198" r="34"/>
				</g>
			</g>
			<g id="Blue_1_">
				<g>
					<circle style="fill-rule:evenodd;clip-rule:evenodd;fill:#67C9E8;" cx="34" cy="194" r="32"/>
				</g>
			</g>
			<g id="Globe_1_">
				<g>
					<path style="fill-rule:evenodd;clip-rule:evenodd;fill:#FFFFFF;" d="M34,160c-18.8,0-34,15.2-34,34c0,18.8,15.2,34,34,34
						s34-15.2,34-34C68,175.2,52.8,160,34,160z M61,181c1.6,3.4,2.7,7.1,2.9,11H52c-0.1-3.9-0.6-7.6-1.3-11L61,181L61,181z
						 M58.7,177h-9.1c-1.4-4.5-3.3-8.4-5.6-11.3C50,167.8,55.1,171.8,58.7,177z M36,164.3c3.9,1.2,7.4,6,9.5,12.7H36V164.3z M36,181
						h10.6c0.8,3.4,1.2,7.1,1.4,11H36V181z M48,196c-0.1,4.3-0.7,8.4-1.6,12H36v-12H48z M20,196h12v12H21.6
						C20.7,204.4,20.2,200.3,20,196z M20,192c0.1-3.9,0.6-7.6,1.4-11H32v11H20z M32,164.3V177h-9.5C24.6,170.3,28.1,165.5,32,164.3z
						 M24,165.7c-2.3,2.9-4.2,6.8-5.6,11.3H9.3C12.9,171.8,18,167.8,24,165.7z M7,181L7,181l10.4,0c-0.8,3.4-1.2,7.1-1.3,11h-12
						C4.3,188.1,5.4,184.3,7,181z M16,196c0.1,4.3,0.7,8.3,1.6,12H7.5c-1.9-3.6-3.1-7.7-3.4-12H16z M10,212h8.7
						c1.4,4.1,3.2,7.6,5.3,10.3C18.4,220.3,13.5,216.7,10,212z M22.8,212H32v11.7C28.3,222.5,25,218.2,22.8,212z M36,223.7V212h9.2
						C43,218.2,39.7,222.5,36,223.7z M44,222.3c2.1-2.7,3.9-6.2,5.3-10.3H58C54.5,216.7,49.6,220.3,44,222.3z M60.5,208H50.4
						c0.9-3.7,1.4-7.7,1.6-12h12C63.6,200.3,62.4,204.4,60.5,208z"/>
				</g>
			</g>
		</g>
		<g id="Location_3_">
			<g>
				<path style="fill-rule:evenodd;clip-rule:evenodd;fill:#CC3366;" d="M12.8,162.3c-2.8,0-5.1,2.3-5.1,5.1c0,3.2,4.2,7.6,5.1,7.6
					s5.1-4.4,5.1-7.6C17.9,164.6,15.6,162.3,12.8,162.3z M12.8,169.1c-0.9,0-1.7-0.8-1.7-1.7c0-0.9,0.8-1.7,1.7-1.7
					c0.9,0,1.7,0.8,1.7,1.7C14.5,168.4,13.8,169.1,12.8,169.1z"/>
			</g>
		</g>
		<g id="Location_1_">
			<g>
				<path style="fill-rule:evenodd;clip-rule:evenodd;fill:#CC3366;" d="M49.5,195c-4,0-7.3,3.3-7.3,7.3c0,4.6,6.1,11,7.3,11
					s7.3-6.4,7.3-11C56.8,198.3,53.5,195,49.5,195z M49.5,204.7c-1.3,0-2.4-1.1-2.4-2.4c0-1.3,1.1-2.4,2.4-2.4
					c1.3,0,2.4,1.1,2.4,2.4C51.9,203.6,50.8,204.7,49.5,204.7z"/>
			</g>
		</g>
		<g>
			<g>
				<path style="fill:none;stroke:#CC3366;stroke-width:4;stroke-miterlimit:10;" d="M49,192.2c0-2-0.3-4-0.8-5.9"/>
				<path style="fill:none;stroke:#CC3366;stroke-width:4;stroke-miterlimit:10;stroke-dasharray:9.3738,9.3738;" d="M43.8,178.1
					c-2.9-3.5-6.8-6.3-11.4-8"/>
				<path style="fill:none;stroke:#CC3366;stroke-width:4;stroke-miterlimit:10;" d="M27.9,168.9c-1.9-0.4-3.9-0.6-6-0.6"/>
			</g>
		</g>
	</g>
</g>
<g id="dashboard">
	<g>
		<g id="File_Browser_Shadow" style="opacity:0.102;">
			<g>
				<path style="fill-rule:evenodd;clip-rule:evenodd;fill:#010101;" d="M64,244H4c-2.2,0-4,1.8-4,4v52c0,2.2,1.8,4,4,4h60
					c2.2,0,4-1.8,4-4v-52C68,245.8,66.2,244,64,244z"/>
			</g>
		</g>
		<g id="File_Browser">
			<g>
				<path style="fill-rule:evenodd;clip-rule:evenodd;fill:#FFFFFF;" d="M64,240H4c-2.2,0-4,1.8-4,4v52c0,2.2,1.8,4,4,4h60
					c2.2,0,4-1.8,4-4v-52C68,241.8,66.2,240,64,240z"/>
			</g>
		</g>
		<g id="Red">
			<g>
				<circle style="fill-rule:evenodd;clip-rule:evenodd;fill:#F05A2F;" cx="7" cy="247" r="2"/>
			</g>
		</g>
		<g id="Yellow">
			<g>
				<circle style="fill-rule:evenodd;clip-rule:evenodd;fill:#F1CF4D;" cx="13" cy="247" r="2"/>
			</g>
		</g>
		<g id="Green">
			<g>
				<circle style="fill-rule:evenodd;clip-rule:evenodd;fill:#80C45E;" cx="19" cy="247" r="2"/>
			</g>
		</g>
		<g id="Header" style="opacity:0.102;">
			<g>
				<path style="fill-rule:evenodd;clip-rule:evenodd;fill:#010101;" d="M64,240H4c-2.2,0-4,1.8-4,4v10h68v-10
					C68,241.8,66.2,240,64,240z M4,300h60c2.2,0,4-4,4-4H0C0,298.2,1.8,300,4,300z"/>
			</g>
		</g>
		<g id="Text_3_" style="opacity:0.2;">
			<g>
				<path style="fill-rule:evenodd;clip-rule:evenodd;fill:#010101;" d="M12,262H4v2h8V262z M4,268v2h12v-2H4z M4,276h12v-2H4V276z
					 M4,282h12v-2H4V282z M4,288h12v-2H4V288z"/>
			</g>
		</g>
		<g id="Thumbs">
			<g>
				<path style="fill-rule:evenodd;clip-rule:evenodd;fill:#67C9E8;" d="M62,262H23c-0.6,0-1,0.4-1,1v4c0,0.6,0.4,1,1,1h39
					c0.6,0,1-0.4,1-1v-4C63,262.4,62.6,262,62,262z M62,272H23c-0.6,0-1,0.4-1,1v4c0,0.6,0.4,1,1,1h39c0.6,0,1-0.4,1-1v-4
					C63,272.4,62.6,272,62,272z M62,282H23c-0.6,0-1,0.4-1,1v4c0,0.6,0.4,1,1,1h39c0.6,0,1-0.4,1-1v-4C63,282.4,62.6,282,62,282z"/>
			</g>
		</g>
	</g>
</g>
<g id="mailchimp">
	<g>
		<g>
			<polygon style="fill:#666766;" points="113.7,134.6 113.7,134.6 113.7,134.6 			"/>
			<path style="fill:#666766;" d="M194.3,142L194.3,142c2.5,0,4.2-1.7,4.2-4.2c0-1.2-0.3-2.3-1-3.1c-0.7-0.9-1.6-1.3-2.7-1.3h0
				c-1.5,0-2.9,1.2-4.2,3.5l-0.1,0.2l-0.1-0.2c-0.3-1-0.6-1.9-0.8-2.4c-0.1-0.4-0.2-0.5-0.2-0.6c-0.1-0.3-0.3-0.4-0.6-0.4
				c-0.2,0-0.4,0.1-0.5,0.2c-0.2,0.1-0.3,0.3-0.3,0.4l0,0c-1.4,4.3-2.5,6.4-3.4,6.4c-0.1,0-0.2,0-0.3-0.1c-0.2-0.3-0.2-0.9-0.1-1.9
				c0.1-0.7,0.1-1.4,0.1-2.3c-0.1-1.6-0.9-2.5-2.2-2.5c-1.7,0-2.8,1.9-3.3,3l-0.2,0.3l0-0.4c-0.1-1.4-0.6-3-2-3
				c-1.7,0-2.9,2-3.7,3.7l-0.2,0.4l0-0.5c0.1-2.2,0.2-3.6,0.2-3.9c0.1-0.4,0-0.6-0.1-0.8c-0.1-0.1-0.3-0.2-0.6-0.2
				c-0.5,0-0.8,0.4-1.2,1.5c-0.7,1.8-2.4,6.1-3.8,6.1c-0.3,0-0.5-0.1-0.6-0.3c-0.6-0.7-0.3-2.5,0-5l0-0.2c0.2-1.2-0.1-1.4-0.7-1.6
				c-0.1,0-0.1,0-0.2,0c-0.5,0-0.7,0.5-1.2,1.9c-0.8,2.4-1.9,5-3.2,5c0,0-0.1,0-0.1,0c-0.7-0.1-0.7-1.1-0.6-2.4c0-0.7,0-1.5-0.1-2.2
				c-0.2-1.3-0.9-2.1-1.9-2.1c-2,0-3.3,2.6-4,4.2l-0.1,0.4l0-0.4c-0.1-0.7-0.2-1.7-0.2-3l0,0l0,0c3.7-4.8,5.4-8.3,5.4-11.2
				c0-1.9-0.8-3-2.3-3c-1.1,0-3.6,0.9-4.5,9.2c-0.2,1.5-0.3,3.1-0.3,4.7l0,0l0,0c-1.7,2.5-5.4,6.9-8.9,6.9c-3.2,0-5.8-2.7-5.8-7.4
				c0-6.3,4.4-10.2,7.7-10.2l0,0c0.7,0,1.3,0.2,1.8,0.6c0.5,0.4,0.7,0.9,0.7,1.6c0,0.9-0.3,1.3-0.6,1.7c-0.1,0.1-0.1,0.2-0.2,0.3
				c-0.1,0.1-0.1,0.3,0,0.4c0.1,0.2,0.3,0.2,0.6,0.2c0.8,0,2-1.2,2-2.9c0-1.8-1.5-3.7-4.2-3.7c-4.1,0-9.5,4.6-9.5,11.9
				c0,5.2,3.2,8.8,7.6,8.8c3.1,0,6.1-2.3,8.8-6l0.2-0.2l0,0.3c0.1,1.4,0.2,2.5,0.2,3.3c0,0.5,0.1,0.9,0.1,1.1c0,0.4,0.1,0.8,0.2,0.9
				c0.2,0.2,0.4,0.3,0.8,0.3c0.6,0,0.7-0.4,1-1.5l0.1-0.3c0.3-1.3,1.4-5.4,3.1-5.4c0.3,0,0.5,0.1,0.6,0.2c0.4,0.4,0.3,1.2,0.3,2.2
				c0,0.6-0.1,1.2,0,1.8c0.2,1.6,0.8,2.4,2.1,2.4c1.3,0,2.6-1.4,3.3-2.7l0.1-0.2l0.1,0.3c0.1,0.7,0.7,3,2.5,3c1.6,0,3-1.8,4.6-5.4
				l0.2-0.5l0,0.5c0,1.4-0.1,3-0.1,4.3c0,1,0.1,1.4,0.6,1.4c0,0,0.1,0,0.1,0c0.4,0,0.7-0.3,0.9-0.8c1.2-4.1,2.2-6,3.1-6
				c1,0,1.1,1.8,1.1,5l0,0.2c0,1.1,0.1,1.6,0.7,1.6c0.5,0,0.6-0.4,0.9-1.4c0.1-0.2,0.1-0.4,0.2-0.6c0.9-3.3,1.7-4.7,2.7-4.7
				c0.8,0,0.9,0.9,0.9,1.2c0,0.6,0,1.3-0.1,1.9c-0.1,0.6-0.1,1.2-0.1,1.7c0.1,1.3,0.7,2,2,2c1.6,0,3-1.9,4.2-5.6l0.1-0.3l0.1,0.3
				c0.2,0.6,0.5,1.4,0.8,2.3l0,0l0,0c-1.2,2.7-2,5.8-2.1,7.4c0,2.1,0.9,3.5,2.4,3.5h0c0.8,0,2.7-0.3,2.7-3.4c0-1.3-0.3-3-0.9-5.3
				l-0.1-0.3l0.2,0.1C192.6,141.7,193.5,142,194.3,142z M153.9,131.7c0-0.8,0.1-1.5,0.2-2.2c0.6-4.5,1.8-7.7,3-7.7h0
				c0.6,0,0.8,0.4,0.8,1.3c0,2.1-1.3,5-3.8,8.7l-0.2,0.3L153.9,131.7z M190.7,148c-0.2,0.3-0.4,0.4-0.8,0.4c-0.4,0-0.6-0.1-0.8-0.4
				c-0.5-0.7-0.4-2.4,0.5-5.5c0.1-0.4,0.2-0.7,0.3-1.1l0.1-0.3l0.1,0.3C191.2,145,191.4,147.2,190.7,148z M191.1,138.9L191.1,138.9
				l-0.1-0.2l0,0c1.1-2.4,2.5-3.8,3.6-3.8h0c1.3,0,2.2,1.2,2.2,2.9c0,1.1-0.5,1.8-0.9,2.1c-0.5,0.4-1.1,0.6-1.7,0.6
				C192.7,140.5,191.7,139.7,191.1,138.9z"/>
			<path style="fill:#666766;" d="M194.6,135L194.6,135L194.6,135z"/>
			<path style="fill:#666766;" d="M118.1,141.6c1.8-0.1,3.2-2.6,3.7-3.6l0.1-0.3l0.1,0.3c0.2,1.5,1,3.9,3.5,4h0
				c1.1,0,2.3-0.7,3.5-1.9l0.1-0.1l0.1,0.1c0.8,1.4,1.9,2.1,3.1,2.1c1.7-0.1,2.8-1.3,2.9-2.2c0-0.2,0-0.4-0.2-0.6
				c-0.2-0.2-0.4-0.2-0.5,0l-0.1,0.1c-0.4,0.4-1.1,1.1-2,1.2c-1,0-1.7-0.6-2.2-1.8l0-0.1l0,0c2.7-3.7,4.7-9.3,4.5-13
				c-0.1-1.7-0.6-3.8-2.4-3.8c0,0-0.1,0-0.1,0c-0.7,0-1.4,0.4-1.9,1c-1.7,2-2.6,6.8-2.3,12.3c0.1,1.1,0.3,2.2,0.6,3.2l0,0.1l0,0
				c-1,1.2-2,1.9-2.8,1.9c-1.9,0-1.9-3.3-1.7-6.1c0-0.6,0.1-1-0.1-1.2c-0.1-0.2-0.3-0.2-0.6-0.2l0,0c-0.7,0-0.8,0.1-1.2,1.2
				c-0.7,2.2-2.2,5.8-3.6,5.8c-0.4,0-0.7-0.1-0.9-0.4c-0.7-0.9-0.2-3.2,0.3-5.1c0.1-0.3,0.2-0.7,0.2-0.9c0.1-0.4,0.1-0.8-0.1-1
				c-0.2-0.2-0.5-0.3-0.9-0.2c-0.6,0.1-1,0.3-1.2,1.5l0,0.3l-0.1-0.2c-0.3-0.4-0.8-0.9-1.8-0.9c-0.1,0-0.2,0-0.3,0
				c-1.1,0.1-2.3,0.8-3.1,2c-1,1.3-1.5,3-1.4,4.7c0,0.1,0,0.2,0,0.3l0,0l0,0c-0.6,0.7-1.2,1-1.9,1c-1,0-1.5-0.7-1.5-1.9
				c0-2,1.3-8.2,1.3-10.4c0-2.4-1-3.6-2.8-3.7l0,0c-2.6,0-4.6,3-6.6,9.3c-0.2,0.6-0.4,1.2-0.5,1.8l-0.3,0.9l0.1-1
				c0.2-2.2,0.3-4.3,0.4-6.3c0.1-3-0.3-4.9-1.2-5.9c-0.5-0.5-1.1-0.8-2-0.8h0c-3.2,0-4.7,5.5-5.8,9.4c-0.3,1.2-1,3.8-1.4,5.6
				l0.3-0.4c0.2-2.3,0.8-8,0.7-11.1c0-3.3-1.1-4.8-3.5-4.8h0c-1.3,0-2.2,0.6-2.7,1.2c-0.8,0.9-1.3,2.1-1.3,3.2
				c0,0.7,0.4,1.3,0.7,1.3c0.2,0,0.3-0.3,0.4-0.4c0.7-2.5,1.7-3.7,2.9-3.7c0.5,0,0.9,0.2,1.2,0.5c1,1,0.8,3.9,0.5,9
				c-0.1,1.7-0.2,3.5-0.3,5.7c0,0.4,0,0.7-0.1,1.1c-0.1,1.5-0.2,2.7,0.4,2.7c0.7,0.1,1.2-0.2,1.4-0.9c0.4-1.1,1.1-4,2.7-9.4
				c1.5-5.2,2.6-7,4-7c1.6,0,1.8,2.9,1.5,9c-0.1,1.3-0.2,2.8-0.2,4.3c0,0.2,0,0.4,0,0.6c-0.1,1.3-0.1,2.4,0.3,2.8
				c0.1,0.1,0.3,0.2,0.5,0.2c0.7,0,0.9-0.6,1.3-1.7c0.1-0.2,0.1-0.4,0.2-0.6c2.4-6.9,4.3-12.9,6.7-12.9c0.7,0,1.3,0.6,1.3,1.8
				c0,2.7-1.3,8-1.3,10.6c0,1,0.3,1.8,0.8,2.4c0.5,0.6,1.3,0.9,2.1,1h0c0.8,0,1.7-0.4,2.5-1.2l0.1-0.1l0.1,0.1
				c0.6,0.8,1.5,1.2,2.5,1.1c1.5-0.1,2.8-1.5,3.2-2.8l0.1-0.3l0.1,0.3C115.7,140.6,116.5,141.8,118.1,141.6z M132,123.6L132,123.6
				c0.2,0,0.3,0.1,0.5,0.3c0.6,0.8,0.6,3.8-0.4,7.3c-0.6,2-1.4,3.8-2.3,5.4l-0.1,0.2l0-0.3c-0.1-0.8-0.2-1.7-0.2-2.4
				C129.1,128.9,130.7,123.7,132,123.6z M115.3,135.8c-0.5,2.2-1.5,4.8-3.4,4.9c-0.1,0-0.1,0-0.1,0c-0.8,0-1.2-0.5-1.3-1.5
				c-0.1-1.3,0.4-2.7,1.3-3.7c0.6-0.6,1.2-1,1.9-1h0C114.5,134.5,115,135.1,115.3,135.8L115.3,135.8L115.3,135.8z"/>
			<path style="fill:#666766;" d="M157,121.8L157,121.8L157,121.8z"/>
			<path style="fill:#666766;" d="M123.7,127.8c-0.7,0-1.2,0.5-1.2,1.2c0,0.7,0.5,1.2,1.2,1.2l0,0.1l0,0v-0.1c0.7,0,1.2-0.5,1.2-1.2
				C124.9,128.4,124.4,127.8,123.7,127.8z"/>
			<path style="fill:#666766;" d="M166.1,127.8c-0.7,0-1.2,0.5-1.2,1.2c0,0.7,0.5,1.2,1.2,1.2l0,0.1l0,0v-0.1c0.7,0,1.2-0.5,1.2-1.2
				C167.4,128.4,166.8,127.8,166.1,127.8z"/>
		</g>
		<g>
			<path style="fill:#666766;" d="M199.2,140.7c-0.5,0-0.8,0.4-0.8,0.8c0,0.5,0.4,0.8,0.8,0.8c0.5,0,0.8-0.4,0.8-0.8
				C200,141,199.6,140.7,199.2,140.7z M199.2,142.2c-0.4,0-0.7-0.3-0.7-0.7c0-0.4,0.3-0.7,0.7-0.7c0.4,0,0.7,0.3,0.7,0.7
				C199.9,141.9,199.6,142.2,199.2,142.2z"/>
			<path style="fill:#666766;" d="M199.5,141.3c0-0.2-0.1-0.3-0.3-0.3h-0.4v1h0.1v-0.4h0.2l0.3,0.4h0.1l-0.3-0.4
				C199.4,141.5,199.5,141.5,199.5,141.3z M199.1,141.4H199v-0.3h0.2c0.1,0,0.2,0,0.2,0.2C199.4,141.4,199.3,141.4,199.1,141.4z"/>
		</g>
	</g>
</g>
<g id="guides">
</g>
</svg>
